<svg xmlns="http://www.w3.org/2000/svg" viewBox="0 0 614.96 378.51"><defs><style>.a{fill:#00a6eb;}</style></defs><title>irodak</title><path class="a" d="M609.4,64l-10.23,1.33-7,.17L586.67,53l-6.17-8.17-11.33.67-4.5-14.33-4.33-6.67-6.5-2.83-10.67,5.17-14,2-12,3.83-6.5-2.33-5.5-9-4.33-10.5-5.67-2-9.33-8L474.33,7l-4.67-1.17L456,9.83l-7.33-1.5-10.83-4L431.5,0,403,5.17l-2,4.5L393,22l-9.83,20-5.33-1.67-10.33,5L358.17,55l-12.5,3.17-6-1.33-9.5-5.5-4.67-1.16L321,47l-10,6-3.5,13.73L295,66.25l-7,2.58-3.17,2.83h-19.5l-9,1.08L248,73.83l-3.5,7.83L243.17,84l-0.33,9.67,3,5.67,6.5,5.67-7.5-1.48-5.33,1-6.17,7.9-10.5.46-10.5.42-7.5,3.33H193.67L175,113.59l-21.67.42-6.83-2.66-9.5-6.49-6.33-3-6.5-5.3-6.5-10.1-6-4.71L106.5,80.5l-2.67-1.83H96.5l-6,5L89,95l-5.5,2.17,3.67,7.17-0.5,6.17L89,118.83l-18,2-1.84-2.33-3,4.08-8.19-.92-1.22-4-2.61-2-6.38-2.83-9.77.83v3.67l-6.32,5.75-0.91,3.08,3.93,2,7.83,2,7.33-.33,2.5,9.5-2.17,11.83L43,158l-10.67,1,0.83,16.17L29.83,187l6.33,7-0.5,12.33-3.33,7.33-16.63-3-4.54,11.67L0,229.5l1,4,12.67-3.67,6.83,4.33-2,6.67,6.83,16.33,6.75,11.17,5.92,12,11.17,4.33L58.33,295l10.5,4.33,1.83,10.17,10,7,12.5,6.83,5.17,5.5,10.33,18.33,7,6L134,355l7.67,11.83,10,4.5L166,373.5l13.33,1.33,15.83,2.34,15.33,1.34,8.67-4.33,10-11.48,5.67-5.64,9.33,3.56,5.5-1.87,13.67-3.58,6.5-8.5H278L289.33,345l10.17-6.83,9.5-8.67,6.67-6.5,10.67-2,12.17,7.17,13.5-4,9.83,1.83L380,326.67l19.83-2.33L412,328.17l7.5-5.5,5.67-12.33,16.5,2.33,11.67-1.33,9.83-10L470,284l4.17-17.83,13.67-10.83,1.83-10.83L499,232.17l1.33-7.17,6-16.5,8-10,6.33-8.5,7.67-22.67,8-4.17,1.5-8.67-1-9.67,9.83-9.5,6.17-2,10-18.67,9-.5,3-5.83,5.32-3.17,4.64,4.67L596.89,108l6.22-7.83L609.73,93,615,85.67V75.17ZM280.9,252.8H266.37v20.51H239.2V252.8H180.07V234.86l31.61-77.75h27.68L212,228.7H239.2v-32h27.17v32H280.9v24.1Zm62,23.07c-33.49,0-53.83-25.46-53.83-60.67s20.34-60.67,53.83-60.67S396.76,180,396.76,215.2,376.42,275.87,342.93,275.87Z"/><path class="a" d="M342.93,179.66c-17.26,0-26.49,15.38-26.49,35.55s9.23,35.55,26.49,35.55,26.49-15.38,26.49-35.55S360.19,179.66,342.93,179.66Z"/></svg>