<svg xmlns="http://www.w3.org/2000/svg" viewBox="0 0 128.28 91.17"><defs><style>.a{fill:#00a6eb;}</style></defs><title>tapasztalat</title><rect class="a" x="105.32" y="1.24" width="14.04" height="47.33" transform="translate(-0.35 50.36) rotate(-25.55)"/><rect class="a" x="10.33" y="1.19" width="14.04" height="47.33" transform="translate(12.18 -5.63) rotate(26.23)"/><path class="a" d="M35.25,13h20S57.5,8.86,69.8,8.86s12,2.77,16.24,3.39a16.32,16.32,0,0,0,6.62-.12l17.34,36-3.15,5.23s6.15,7.3.77,12.8c-3.9,4-7.24,2.88-7.24,2.88a6.83,6.83,0,0,1-.95,6.21c-3.07,3.91-8.51,2.52-8.51,2.52s0.63,2.36-1.73,5a8.74,8.74,0,0,1-8.58,2.5,15.07,15.07,0,0,1-4.35-1.71s-0.95,4.41-5.36,5S64.25,87,64.25,87s-1.7,2.52-2.49,3.63-3.26,1.71-6.6-.21c-2.39-1.37-1.6-6.41-1.6-6.41a7.32,7.32,0,0,1-9.3,2.52c-6-2.68-1.89-8.67-1.89-8.67s-4.88,3.94-9.14,1.1-1.42-7.88-1.42-7.88a7.33,7.33,0,0,1-9.93-.79c-4.89-4.89-.63-9.14.79-10.41s3.47-2.68,3.47-2.68l-7.41-9.41,2.52-4.53,8,10s4.89-2.52,7.57,1.26a10.42,10.42,0,0,1,1.89,7.57,6.4,6.4,0,0,1,5.68,1.26C46.94,65.59,48.2,70,48.2,70a6.84,6.84,0,0,1,5.68,1.42,8,8,0,0,1,3,5.36s1.5,0,4.21,1.89a10,10,0,0,1,3.12,3.15s2.55,1.89,3.66,2.52a3.27,3.27,0,0,0,3.82-.77c1-1.29.94-2.54-.5-3.8-0.86-.75-8.36-6.46-10.09-7.88s0.16-5,3.23-2.9S76.65,78.31,80,80.73c2.83,2,9.3-1.26,3.63-6.31S68.85,63.7,66.49,61.81s0-5,3-3,18,12.77,20.34,14.51,10.09-1.26,4.57-6.15-21-15.36-23.34-17.06-0.63-5.49,3.31-3S96.44,62.91,99.28,64.49s9.46-3,4.57-7.41S71.38,28.7,69.17,26.49s-7.73-3.15-9.93,1.58S60.18,35,54.5,39.74s-10.56,3.78-12.93,2.52-3.47-4.1-1.73-7.1,1.73-6.62,2.37-9.3a46.94,46.94,0,0,1,3.15-7.57l-12.14.09Z" transform="translate(-0.59 -0.53)"/></svg>