<svg xmlns="http://www.w3.org/2000/svg" viewBox="0 0 128.71 74.79"><defs><style>.a{fill:#00a6eb;}</style></defs><title>vegzettseg</title><path class="a" d="M64.71,0L0,21.38l21.1,7.05,42.62-15a3,3,0,1,1,2,5.66L30.36,31.52,64.71,43l64-21.62Z"/><path class="a" d="M24.38,34.13v28a3,3,0,0,1-6,0v-30"/><polygon class="a" points="32.29 74.79 21.38 68.79 10.46 74.79 21.38 52.31 21.38 52.31 32.29 74.79"/><path class="a" d="M32.38,37.83L64.25,48.77l32.13-10.9V57.13s-5.12,12.5-32,12.5-32-12.5-32-12.5V37.83Z"/><circle class="a" cx="21.38" cy="55.19" r="7"/></svg>